<svg width="224" height="46" viewBox="0 0 224 46" fill="none" xmlns="http://www.w3.org/2000/svg">
<path d="M24.5358 30.7C22.4158 30.7 20.5891 30.1733 19.0558 29.12C17.5358 28.0667 16.4224 26.4933 15.7158 24.4C15.0091 22.2933 14.8091 19.6867 15.1158 16.58C15.4358 13.46 16.1424 10.8533 17.2358 8.76C18.3291 6.66667 19.7224 5.09333 21.4158 4.04C23.1224 2.98666 25.0424 2.46 27.1758 2.46C30.2558 2.46 32.5158 3.27333 33.9558 4.9C35.3958 6.51333 36.1224 8.6 36.1358 11.16L29.7958 12.36C29.6624 11.24 29.3558 10.3133 28.8758 9.58C28.3958 8.83333 27.6491 8.46 26.6358 8.46C25.8091 8.46 25.0424 8.75333 24.3358 9.34C23.6291 9.92667 23.0291 10.82 22.5358 12.02C22.0424 13.2067 21.6958 14.7267 21.4958 16.58C21.3358 18.4067 21.3824 19.9133 21.6358 21.1C21.8891 22.2867 22.3091 23.1667 22.8958 23.74C23.4958 24.3133 24.2224 24.6 25.0758 24.6C26.2624 24.6 27.1824 24.2467 27.8358 23.54C28.5024 22.8333 28.8958 21.9733 29.0158 20.96H35.3958C35.1824 23.0533 34.6224 24.8267 33.7158 26.28C32.8091 27.72 31.5824 28.82 30.0358 29.58C28.5024 30.3267 26.6691 30.7 24.5358 30.7ZM46.7258 30.7C45.0724 30.7 43.5858 30.3267 42.2658 29.58C40.9591 28.82 39.9658 27.66 39.2858 26.1C38.6058 24.54 38.3724 22.5667 38.5858 20.18C38.8124 17.7133 39.4124 15.7 40.3858 14.14C41.3724 12.58 42.5924 11.4333 44.0458 10.7C45.4991 9.96667 47.0324 9.6 48.6458 9.6C50.2458 9.6 51.6991 9.96667 53.0058 10.7C54.3124 11.4333 55.3124 12.58 56.0058 14.14C56.6991 15.6867 56.9324 17.7 56.7058 20.18C56.4658 22.58 55.8524 24.56 54.8658 26.12C53.8924 27.6667 52.6924 28.82 51.2658 29.58C49.8391 30.3267 48.3258 30.7 46.7258 30.7ZM47.0458 24.9C47.8324 24.9 48.5991 24.5467 49.3458 23.84C50.1058 23.1333 50.5724 21.9133 50.7458 20.18C50.9191 18.38 50.7591 17.12 50.2658 16.4C49.7858 15.68 49.1524 15.32 48.3658 15.32C47.5524 15.32 46.7458 15.6867 45.9458 16.42C45.1591 17.14 44.6724 18.3933 44.4858 20.18C44.3658 21.34 44.4124 22.2667 44.6258 22.96C44.8524 23.6533 45.1858 24.1533 45.6258 24.46C46.0658 24.7533 46.5391 24.9 47.0458 24.9ZM66.9567 30.7C65.53 30.7 64.2567 30.3133 63.1367 29.54C62.0167 28.7533 61.1367 27.66 60.4967 26.26C59.87 24.8467 59.5567 23.2 59.5567 21.32C59.5567 19.56 59.79 17.9667 60.2567 16.54C60.7367 15.1 61.39 13.8667 62.2167 12.84C63.0567 11.8 64.0167 11 65.0967 10.44C66.1767 9.88 67.3234 9.6 68.5367 9.6C69.5634 9.6 70.45 9.80667 71.1967 10.22C71.9434 10.6333 72.5434 11.26 72.9967 12.1L73.9367 2.32H79.9567L77.2967 30H72.4367L71.9967 27.06C71.3434 28.3133 70.57 29.2333 69.6767 29.82C68.7967 30.4067 67.89 30.7 66.9567 30.7ZM68.5367 24.64C69.0434 24.64 69.5567 24.4667 70.0767 24.12C70.5967 23.7733 71.0434 23.3 71.4167 22.7C71.8034 22.0867 72.03 21.3933 72.0967 20.62L72.1967 20.04C72.2234 19.92 72.2367 19.8 72.2367 19.68C72.2367 19.5467 72.2367 19.44 72.2367 19.36C72.25 18.5867 72.15 17.92 71.9367 17.36C71.7234 16.8 71.4167 16.3667 71.0167 16.06C70.6167 15.74 70.13 15.58 69.5567 15.58C68.9034 15.58 68.3234 15.72 67.8167 16C67.31 16.2667 66.8834 16.6333 66.5367 17.1C66.2034 17.5667 65.9434 18.1067 65.7567 18.72C65.5834 19.32 65.4967 19.9533 65.4967 20.62C65.4967 21.82 65.7567 22.7933 66.2767 23.54C66.81 24.2733 67.5634 24.64 68.5367 24.64ZM90.4855 30.7C88.9655 30.7 87.5855 30.2467 86.3455 29.34C85.1055 28.42 84.1455 27.16 83.4655 25.56C82.7988 23.9467 82.5655 22.1067 82.7655 20.04C82.9655 17.8533 83.5455 15.9867 84.5055 14.44C85.4788 12.88 86.6655 11.6867 88.0655 10.86C89.4655 10.02 90.9321 9.6 92.4655 9.6C93.9321 9.6 95.1588 9.91333 96.1455 10.54C97.1321 11.1533 97.9055 11.98 98.4655 13.02C99.0255 14.06 99.3921 15.2267 99.5655 16.52C99.7388 17.8 99.7321 19.1067 99.5455 20.44C99.4788 20.72 99.4121 20.96 99.3455 21.16C99.2921 21.36 99.2388 21.58 99.1855 21.82H87.5255L88.5055 20.98C88.3455 21.86 88.3321 22.6333 88.4655 23.3C88.6121 23.9667 88.8921 24.4867 89.3055 24.86C89.7321 25.2333 90.2855 25.42 90.9655 25.42C91.4055 25.42 91.8188 25.3067 92.2055 25.08C92.6055 24.84 92.9055 24.4667 93.1055 23.96H99.0255C98.7455 25.1867 98.2055 26.3133 97.4055 27.34C96.6188 28.3533 95.6321 29.1667 94.4455 29.78C93.2721 30.3933 91.9521 30.7 90.4855 30.7ZM88.7455 18.72L87.9055 17.86H95.1255L94.1455 18.72C94.2388 18.12 94.2521 17.5267 94.1855 16.94C94.1321 16.34 93.9321 15.8467 93.5855 15.46C93.2521 15.06 92.7188 14.86 91.9855 14.86C91.3988 14.86 90.8721 15.0133 90.4055 15.32C89.9388 15.6267 89.5588 16.0733 89.2655 16.66C88.9855 17.2333 88.8121 17.92 88.7455 18.72ZM103.051 30L105.591 3.08H114.071L117.691 16.6L123.991 3.08H132.131L129.631 30H123.631L125.371 10.58L125.651 10.72L118.531 27.54H114.751L110.551 9.68L110.831 9.6L108.971 30H103.051ZM141.307 7.86C140.174 7.86 139.327 7.54 138.767 6.9C138.221 6.24666 137.981 5.32666 138.047 4.14C138.154 2.98 138.561 2.08 139.267 1.44C139.974 0.786664 140.867 0.459998 141.947 0.459998C143.054 0.459998 143.887 0.786664 144.447 1.44C145.007 2.09333 145.254 2.99333 145.187 4.14C145.081 5.31333 144.681 6.22667 143.987 6.88C143.294 7.53333 142.401 7.86 141.307 7.86ZM136.307 30L138.207 10.14H144.127L142.227 30H136.307ZM148.814 30L150.694 10.18H155.854L156.174 13.02C156.948 11.8333 157.808 10.9667 158.754 10.42C159.714 9.87333 160.721 9.6 161.774 9.6C163.308 9.6 164.521 9.98666 165.414 10.76C166.308 11.52 166.921 12.5733 167.254 13.92C167.588 15.2533 167.681 16.78 167.534 18.5L166.494 30H160.434L161.474 18.5C161.608 17.5267 161.488 16.8 161.114 16.32C160.754 15.8267 160.261 15.58 159.634 15.58C158.714 15.58 157.848 16.0467 157.034 16.98C156.221 17.9133 155.701 19.5067 155.474 21.76L154.734 30H148.814ZM178.675 30.7C177.249 30.7 175.975 30.3133 174.855 29.54C173.735 28.7533 172.855 27.66 172.215 26.26C171.589 24.8467 171.275 23.2 171.275 21.32C171.275 19.56 171.509 17.9667 171.975 16.54C172.455 15.1 173.109 13.8667 173.935 12.84C174.775 11.8 175.735 11 176.815 10.44C177.895 9.88 179.042 9.6 180.255 9.6C181.282 9.6 182.169 9.80667 182.915 10.22C183.662 10.6333 184.262 11.26 184.715 12.1L185.655 2.32H191.675L189.015 30H184.155L183.715 27.06C183.062 28.3133 182.289 29.2333 181.395 29.82C180.515 30.4067 179.609 30.7 178.675 30.7ZM180.255 24.64C180.762 24.64 181.275 24.4667 181.795 24.12C182.315 23.7733 182.762 23.3 183.135 22.7C183.522 22.0867 183.749 21.3933 183.815 20.62L183.915 20.04C183.942 19.92 183.955 19.8 183.955 19.68C183.955 19.5467 183.955 19.44 183.955 19.36C183.969 18.5867 183.869 17.92 183.655 17.36C183.442 16.8 183.135 16.3667 182.735 16.06C182.335 15.74 181.849 15.58 181.275 15.58C180.622 15.58 180.042 15.72 179.535 16C179.029 16.2667 178.602 16.6333 178.255 17.1C177.922 17.5667 177.662 18.1067 177.475 18.72C177.302 19.32 177.215 19.9533 177.215 20.62C177.215 21.82 177.475 22.7933 177.995 23.54C178.529 24.2733 179.282 24.64 180.255 24.64ZM201.444 30.7C200.044 30.7 198.724 30.46 197.484 29.98C196.258 29.4867 195.298 28.7267 194.604 27.7C193.911 26.6733 193.664 25.3533 193.864 23.74H199.324C199.218 24.3533 199.331 24.8 199.664 25.08C200.011 25.36 200.551 25.5 201.284 25.5C202.138 25.5 202.738 25.36 203.084 25.08C203.431 24.7867 203.624 24.4867 203.664 24.18C203.718 23.8067 203.604 23.5267 203.324 23.34C203.044 23.1533 202.771 23 202.504 22.88L198.304 21.02C197.144 20.5133 196.258 19.78 195.644 18.82C195.031 17.8467 194.791 16.7333 194.924 15.48C195.058 14.24 195.511 13.1867 196.284 12.32C197.058 11.44 198.064 10.7667 199.304 10.3C200.544 9.83333 201.931 9.6 203.464 9.6C206.091 9.6 207.958 10.2267 209.064 11.48C210.184 12.7333 210.671 14.3 210.524 16.18H205.024C205.051 15.7533 204.918 15.4067 204.624 15.14C204.344 14.8733 203.878 14.74 203.224 14.74C202.851 14.74 202.511 14.7867 202.204 14.88C201.898 14.9733 201.651 15.1067 201.464 15.28C201.291 15.4533 201.191 15.66 201.164 15.9C201.138 16.18 201.231 16.4 201.444 16.56C201.658 16.7067 201.858 16.8267 202.044 16.92L206.864 19.18C207.891 19.66 208.751 20.3067 209.444 21.12C210.138 21.9333 210.431 22.9533 210.324 24.18C210.244 25.2333 209.838 26.26 209.104 27.26C208.371 28.26 207.358 29.0867 206.064 29.74C204.771 30.38 203.231 30.7 201.444 30.7Z" fill="white"/>
<path d="M21.3916 44.9999V36.1304H202.044L21.3916 44.9999Z" fill="white" stroke="white"/>
</svg>
